<svg width="70" height="70" viewBox="0 0 70 70" fill="none" xmlns="http://www.w3.org/2000/svg">
  <g transform="translate(-1095 -383)">
    <rect x="1095" y="383" width="70" height="70" rx="13.1283" fill="#FBCFFB"/>
    <rect x="1104.34" y="392.336" width="51.3333" height="51.3333" rx="8.7522" fill="white"/>
    <path fill-rule="evenodd" clip-rule="evenodd" d="M1127.5 408.005H1132.51C1137.24 408.005 1139.61 408.005 1141.07 409.47C1142.08 410.479 1142.4 411.91 1142.5 414.244C1142.52 414.706 1142.53 414.938 1142.44 415.092C1142.35 415.246 1142.01 415.439 1141.32 415.824C1140.55 416.252 1140.04 417.069 1140.04 418.008C1140.04 418.946 1140.55 419.763 1141.32 420.191C1142.01 420.576 1142.35 420.769 1142.44 420.923C1142.53 421.078 1142.52 421.309 1142.5 421.772C1142.4 424.105 1142.08 425.537 1141.07 426.545C1139.61 428.01 1137.24 428.01 1132.51 428.01H1127.5C1122.77 428.01 1120.41 428.01 1118.94 426.545C1117.93 425.537 1117.62 424.105 1117.52 421.772C1117.5 421.309 1117.49 421.078 1117.58 420.923C1117.66 420.769 1118.01 420.576 1118.7 420.191C1119.46 419.763 1119.98 418.946 1119.98 418.008C1119.98 417.069 1119.46 416.252 1118.7 415.824C1118.01 415.439 1117.66 415.246 1117.58 415.092C1117.49 414.938 1117.5 414.706 1117.52 414.244C1117.62 411.91 1117.93 410.479 1118.94 409.47C1120.41 408.005 1122.77 408.005 1127.5 408.005ZM1134.44 413.594C1134.81 413.96 1134.81 414.554 1134.44 414.92L1126.92 422.422C1126.56 422.788 1125.96 422.788 1125.59 422.422C1125.23 422.055 1125.23 421.462 1125.59 421.096L1133.11 413.594C1133.48 413.227 1134.08 413.227 1134.44 413.594ZM1133.15 422.384C1133.84 422.384 1134.41 421.824 1134.41 421.133C1134.41 420.443 1133.84 419.883 1133.15 419.883C1132.46 419.883 1131.9 420.443 1131.9 421.133C1131.9 421.824 1132.46 422.384 1133.15 422.384ZM1126.89 416.132C1127.58 416.132 1128.14 415.572 1128.14 414.882C1128.14 414.191 1127.58 413.632 1126.89 413.632C1126.19 413.632 1125.63 414.191 1125.63 414.882C1125.63 415.572 1126.19 416.132 1126.89 416.132Z" fill="#791A79"/>
  </g>
</svg>
