<svg width="70" height="70" viewBox="0 0 70 70" fill="none" xmlns="http://www.w3.org/2000/svg">
  <g transform="translate(-779 -383)">
    <rect x="779" y="383" width="70" height="70" rx="13.1283" fill="#FBCFFB"/>
    <rect x="788.332" y="392.336" width="51.3333" height="51.3333" rx="8.7522" fill="white"/>
    <path d="M824.125 420.916L824.367 418.547C824.495 417.284 824.58 416.449 824.514 415.924L824.537 415.924C825.627 415.924 826.511 414.991 826.511 413.84C826.511 412.689 825.627 411.756 824.537 411.756C823.447 411.756 822.563 412.689 822.563 413.84C822.563 414.361 822.744 414.836 823.042 415.202C822.613 415.481 822.052 416.071 821.208 416.959L821.208 416.959C820.557 417.643 820.232 417.985 819.869 418.038C819.668 418.068 819.463 418.037 819.277 417.951C818.942 417.795 818.719 417.372 818.272 416.527L815.917 412.069C815.641 411.548 815.411 411.111 815.203 410.76C816.056 410.3 816.64 409.364 816.64 408.283C816.64 406.749 815.462 405.505 814.008 405.505C812.554 405.505 811.376 406.749 811.376 408.283C811.376 409.364 811.96 410.3 812.813 410.76C812.605 411.111 812.375 411.548 812.099 412.069L809.744 416.527C809.297 417.372 809.074 417.795 808.739 417.951C808.553 418.037 808.348 418.068 808.147 418.038C807.784 417.985 807.459 417.643 806.808 416.959C805.964 416.071 805.403 415.481 804.974 415.202C805.272 414.836 805.453 414.361 805.453 413.84C805.453 412.689 804.569 411.756 803.479 411.756C802.389 411.756 801.505 412.689 801.505 413.84C801.505 414.991 802.389 415.924 803.479 415.924L803.502 415.924C803.436 416.449 803.521 417.284 803.649 418.547L803.891 420.916C804.025 422.23 804.136 423.481 804.273 424.607H823.744C823.88 423.481 823.991 422.23 824.125 420.916Z" fill="#791A79"/>
    <path d="M812.576 430.511H815.44C819.172 430.511 821.039 430.511 822.284 429.334C822.827 428.821 823.171 427.895 823.42 426.691H804.596C804.845 427.895 805.189 428.821 805.732 429.334C806.978 430.511 808.844 430.511 812.576 430.511Z" fill="#791A79"/>
  </g>
</svg>
