<svg width="70" height="70" viewBox="0 0 70 70" fill="none" xmlns="http://www.w3.org/2000/svg">
  <g transform="translate(-463 -383)">
    <rect x="463" y="383" width="70" height="70" rx="13.1283" fill="#FBCFFB"/>
    <rect x="472.336" y="392.336" width="51.3333" height="51.3333" rx="8.7522" fill="white"/>
    <path d="M497.07 405.505C491.796 405.51 489.067 405.604 487.336 407.335C485.604 409.067 485.51 411.796 485.505 417.07H491.648C491.209 416.522 490.882 415.875 490.703 415.16C490.03 412.468 492.468 410.03 495.16 410.703C495.875 410.881 496.522 411.209 497.07 411.648V405.505Z" fill="#791A79"/>
    <path d="M485.505 418.945C485.51 424.219 485.604 426.948 487.336 428.68C489.067 430.411 491.796 430.505 497.07 430.51V420.663C496.095 422.61 494.082 423.946 491.756 423.946C491.238 423.946 490.818 423.527 490.818 423.009C490.818 422.491 491.238 422.071 491.756 422.071C493.678 422.071 495.288 420.737 495.711 418.945H485.505Z" fill="#791A79"/>
    <path d="M498.945 430.51C504.22 430.505 506.949 430.411 508.68 428.68C510.411 426.948 510.505 424.219 510.511 418.945H500.305C500.728 420.737 502.338 422.071 504.259 422.071C504.777 422.071 505.197 422.491 505.197 423.009C505.197 423.527 504.777 423.946 504.259 423.946C501.934 423.946 499.92 422.61 498.945 420.663V430.51Z" fill="#791A79"/>
    <path d="M510.511 417.07C510.505 411.796 510.411 409.067 508.68 407.335C506.949 405.604 504.22 405.51 498.945 405.505V411.648C499.494 411.209 500.14 410.881 500.855 410.703C503.547 410.03 505.986 412.468 505.313 415.16C505.134 415.875 504.806 416.522 504.367 417.07H510.511Z" fill="#791A79"/>
    <path d="M494.705 412.522C496.095 412.869 497.07 414.118 497.07 415.551V417.07H495.551C494.118 417.07 492.87 416.095 492.522 414.705C492.193 413.387 493.387 412.192 494.705 412.522Z" fill="#791A79"/>
    <path d="M498.945 415.551V417.07H500.464C501.897 417.07 503.146 416.095 503.493 414.705C503.823 413.387 502.629 412.192 501.31 412.522C499.92 412.869 498.945 414.118 498.945 415.551Z" fill="#791A79"/>
  </g>
</svg>
