<svg width="30" height="32" viewBox="0 0 30 32" fill="none" xmlns="http://www.w3.org/2000/svg">
  <g transform="translate(-1218 -16)">
    <path d="M1227.87 24.5325C1227.87 23.9667 1228.09 23.4241 1228.49 23.024C1228.89 22.6239 1229.43 22.3992 1230 22.3992C1230.56 22.3992 1231.11 22.6239 1231.51 23.024C1231.91 23.4241 1232.13 23.9667 1232.13 24.5325C1233.36 25.1117 1234.4 26.0134 1235.15 27.1408C1235.9 28.2683 1236.34 29.579 1236.4 30.9325V34.1325C1236.48 34.7957 1236.71 35.4307 1237.08 35.9865C1237.46 36.5423 1237.95 37.0033 1238.53 37.3325H1221.47C1222.05 37.0033 1222.54 36.5423 1222.91 35.9865C1223.28 35.4307 1223.52 34.7957 1223.6 34.1325V30.9325C1223.66 29.579 1224.09 28.2683 1224.84 27.1408C1225.6 26.0134 1226.64 25.1117 1227.87 24.5325Z" stroke="#4A4A4A" stroke-width="1.5" stroke-linecap="round" stroke-linejoin="round"/>
    <path d="M1226.8 37.3325V38.3992C1226.8 39.2479 1227.14 40.0618 1227.74 40.6619C1228.34 41.262 1229.15 41.5992 1230 41.5992C1230.85 41.5992 1231.66 41.262 1232.26 40.6619C1232.86 40.0618 1233.2 39.2479 1233.2 38.3992V37.3325" stroke="#4A4A4A" stroke-width="1.5" stroke-linecap="round" stroke-linejoin="round"/>
    <rect x="1230" y="16" width="16" height="16" rx="8" fill="#E51C00"/>
    <path d="M1237.54 28.1136C1237.03 28.1136 1236.58 28.0162 1236.17 27.8214C1235.77 27.6239 1235.45 27.3534 1235.21 27.0097C1234.96 26.6661 1234.84 26.2738 1234.82 25.8328H1236.04C1236.07 26.1899 1236.23 26.4835 1236.51 26.7135C1236.8 26.9435 1237.14 27.0584 1237.54 27.0584C1237.86 27.0584 1238.15 26.9854 1238.39 26.8393C1238.64 26.6905 1238.83 26.4862 1238.98 26.2265C1239.12 25.9667 1239.19 25.6705 1239.19 25.3377C1239.19 24.9995 1239.12 24.6978 1238.97 24.4326C1238.83 24.1675 1238.62 23.9591 1238.37 23.8076C1238.11 23.6561 1237.82 23.579 1237.49 23.5763C1237.24 23.5763 1236.99 23.6196 1236.73 23.7062C1236.48 23.7927 1236.27 23.9064 1236.11 24.0471L1234.97 23.8766L1235.43 19.6883H1240V20.7638H1236.48L1236.21 23.0893H1236.26C1236.42 22.9324 1236.64 22.8011 1236.91 22.6956C1237.18 22.5901 1237.47 22.5373 1237.77 22.5373C1238.28 22.5373 1238.73 22.6577 1239.13 22.8985C1239.52 23.1393 1239.84 23.4681 1240.06 23.8847C1240.29 24.2987 1240.41 24.7749 1240.4 25.3133C1240.41 25.8517 1240.29 26.332 1240.04 26.7541C1239.8 27.1761 1239.46 27.5089 1239.02 27.7524C1238.59 27.9932 1238.1 28.1136 1237.54 28.1136Z" fill="#FFFBFB"/>
  </g>
</svg>
