<svg width="140" height="34" viewBox="0 0 140 34" fill="none" xmlns="http://www.w3.org/2000/svg">
  <g transform="translate(-16 -16)">
    <path d="M43.4642 24.2596L28.513 31.7643L28.5999 39.1819L19.5596 34.7487V27.389L34.337 19.8264L43.2904 24.2017" fill="#C530C5"/>
    <path d="M21.1533 42.9776L36.0756 35.4441L36.0177 28.0264L45.029 32.4596V39.8193L30.2516 47.3819L21.2982 43.0356" fill="#C530C5"/>
    <path d="M56.9602 35.8436H60.7726C60.8479 36.4837 61.1397 37.0674 61.648 37.5945C62.1752 38.1028 62.8624 38.5076 63.7096 38.8089C64.5568 39.0913 65.5075 39.2325 66.5618 39.2325C67.522 39.2325 68.3127 39.1289 68.934 38.9218C69.5553 38.7147 70.0166 38.4229 70.3178 38.0464C70.619 37.6698 70.7696 37.218 70.7696 36.6908C70.7696 36.1825 70.5814 35.7966 70.2048 35.533C69.8283 35.2506 69.2353 35.0247 68.4257 34.8552C67.6161 34.667 66.5524 34.4787 65.2346 34.2904C64.1991 34.1398 63.2201 33.9327 62.2976 33.6691C61.3751 33.3867 60.5561 33.029 59.8407 32.596C59.1441 32.163 58.5887 31.6358 58.1745 31.0146C57.7791 30.3744 57.5815 29.6214 57.5815 28.7553C57.5815 27.6822 57.8827 26.7409 58.4851 25.9313C59.1064 25.1218 60.0195 24.4911 61.2244 24.0392C62.4294 23.5874 63.9073 23.3615 65.6582 23.3615C68.2939 23.3615 70.3178 23.9263 71.7298 25.0559C73.1606 26.1666 73.8572 27.701 73.8196 29.659H70.1484C70.073 28.5482 69.6024 27.7481 68.7363 27.2586C67.8891 26.7691 66.816 26.5244 65.517 26.5244C64.312 26.5244 63.3142 26.7032 62.5235 27.0609C61.7516 27.4186 61.3656 28.0305 61.3656 28.8965C61.3656 29.2354 61.4598 29.5366 61.648 29.8002C61.8363 30.045 62.1564 30.2615 62.6082 30.4497C63.0601 30.638 63.6719 30.8169 64.4438 30.9863C65.2157 31.1558 66.1759 31.3252 67.3243 31.4946C68.3975 31.6453 69.367 31.8523 70.2331 32.1159C71.1179 32.3607 71.871 32.6901 72.4923 33.1043C73.1324 33.4997 73.6219 34.008 73.9608 34.6293C74.2997 35.2506 74.4691 36.0131 74.4691 36.9168C74.4691 38.0275 74.1773 38.9971 73.5937 39.8255C73.0289 40.6351 72.144 41.2658 70.9391 41.7176C69.753 42.1694 68.2092 42.3954 66.3077 42.3954C64.9522 42.3954 63.7566 42.2542 62.7212 41.9718C61.6857 41.6705 60.7914 41.2752 60.0384 40.7857C59.2853 40.2962 58.6734 39.7596 58.2027 39.176C57.7321 38.5923 57.3932 38.0087 57.1861 37.4251C56.9978 36.8415 56.9225 36.3143 56.9602 35.8436ZM80.8104 38.0181V34.8835H92.8972V38.0181H80.8104ZM76.2637 42L84.8487 23.7286H88.9153L97.5851 42H93.4902L85.9783 25.5359H87.7857L80.3303 42H76.2637ZM96.7387 23.7286H115.999V26.8632H96.7387V23.7286ZM104.505 26.4679H108.261V42H104.505V26.4679ZM122.457 31.2687H136.944V34.4034H122.457V31.2687ZM136.322 23.7286H140.078V42H136.322V23.7286ZM119.152 23.7286H122.908V42H119.152V23.7286ZM145.374 23.7286H149.13V42H145.374V23.7286Z" fill="#340634"/>
  </g>
</svg>
