<svg width="16" height="16" viewBox="0 0 16 16" fill="none" xmlns="http://www.w3.org/2000/svg">
  <g transform="translate(-26 -164)">
    <path d="M26.5 169.82C26.5 169.378 26.6756 168.954 26.9882 168.642C27.3007 168.329 27.7246 168.154 28.1667 168.154H39.8333C40.2754 168.154 40.6993 168.329 41.0118 168.642C41.3244 168.954 41.5 169.378 41.5 169.82V177.32C41.5 177.762 41.3244 178.186 41.0118 178.499C40.6993 178.811 40.2754 178.987 39.8333 178.987H28.1667C27.7246 178.987 27.3007 178.811 26.9882 178.499C26.6756 178.186 26.5 177.762 26.5 177.32V169.82Z" stroke="#C530C5" stroke-width="1.25" stroke-linecap="round" stroke-linejoin="round"/>
    <path d="M30.667 168.154V166.487C30.667 166.045 30.8426 165.621 31.1551 165.308C31.4677 164.996 31.8916 164.82 32.3337 164.82H35.667C36.109 164.82 36.5329 164.996 36.8455 165.308C37.1581 165.621 37.3337 166.045 37.3337 166.487V168.154" stroke="#C530C5" stroke-width="1.25" stroke-linecap="round" stroke-linejoin="round"/>
    <path d="M26.5 173.154C28.8263 174.326 31.395 174.936 34 174.936C36.605 174.936 39.1737 174.326 41.5 173.154" stroke="#616161" stroke-width="1.25" stroke-linecap="round" stroke-linejoin="round"/>
  </g>
</svg>
