<svg width="16" height="17" viewBox="0 0 16 17" fill="none" xmlns="http://www.w3.org/2000/svg">
  <g transform="translate(-26 -204)">
    <path d="M31.5013 206.484H29.8346C29.3926 206.484 28.9687 206.66 28.6561 206.973C28.3436 207.285 28.168 207.709 28.168 208.151V218.151C28.168 218.593 28.3436 219.017 28.6561 219.33C28.9687 219.642 29.3926 219.818 29.8346 219.818H38.168C38.61 219.818 39.0339 219.642 39.3465 219.33C39.659 219.017 39.8346 218.593 39.8346 218.151V208.151C39.8346 207.709 39.659 207.285 39.3465 206.973C39.0339 206.66 38.61 206.484 38.168 206.484H36.5013" stroke="#616161" stroke-width="1.5" stroke-linecap="round" stroke-linejoin="round"/>
    <path d="M31.5 206.487C31.5 206.045 31.6756 205.621 31.9882 205.308C32.3007 204.996 32.7246 204.82 33.1667 204.82H34.8333C35.2754 204.82 35.6993 204.996 36.0118 205.308C36.3244 205.621 36.5 206.045 36.5 206.487C36.5 206.929 36.3244 207.353 36.0118 207.665C35.6993 207.978 35.2754 208.154 34.8333 208.154H33.1667C32.7246 208.154 32.3007 207.978 31.9882 207.665C31.6756 207.353 31.5 206.929 31.5 206.487Z" stroke="#616161" stroke-width="1.5" stroke-linecap="round" stroke-linejoin="round"/>
    <path d="M31.5 212.32H36.5" stroke="#616161" stroke-width="1.5" stroke-linecap="round" stroke-linejoin="round"/>
    <path d="M31.5 215.652H36.5" stroke="#616161" stroke-width="1.5" stroke-linecap="round" stroke-linejoin="round"/>
  </g>
</svg>
