<svg width="16" height="17" viewBox="0 0 16 17" fill="none" xmlns="http://www.w3.org/2000/svg">
  <g transform="translate(-26 -244)">
    <path d="M39.834 255.656V258.156C39.834 258.377 39.7462 258.589 39.5899 258.746C39.4336 258.902 39.2217 258.99 39.0007 258.99H29.0007C28.5586 258.99 28.1347 258.814 27.8221 258.501C27.5096 258.189 27.334 257.765 27.334 257.323V247.323C27.334 246.881 27.5096 246.457 27.8221 246.144C28.1347 245.832 28.5586 245.656 29.0007 245.656H37.334C37.555 245.656 37.767 245.744 37.9232 245.9C38.0795 246.057 38.1673 246.269 38.1673 246.49V248.99M27.334 247.323C27.334 247.765 27.5096 248.189 27.8221 248.501C28.1347 248.814 28.5586 248.99 29.0007 248.99H39.0007C39.2217 248.99 39.4336 249.077 39.5899 249.234C39.7462 249.39 39.834 249.602 39.834 249.823V252.323" stroke="#616161" stroke-width="1.5" stroke-linecap="round" stroke-linejoin="round"/>
    <path d="M40.666 252.32V255.654H37.3327C36.8907 255.654 36.4667 255.478 36.1542 255.165C35.8416 254.853 35.666 254.429 35.666 253.987C35.666 253.545 35.8416 253.121 36.1542 252.808C36.4667 252.496 36.8907 252.32 37.3327 252.32H40.666Z" stroke="#616161" stroke-width="1.5" stroke-linecap="round" stroke-linejoin="round"/>
  </g>
</svg>
