<svg width="16" height="18" viewBox="0 0 16 18" fill="none" xmlns="http://www.w3.org/2000/svg">
  <g transform="translate(-26 -124)">
    <path d="M36.9167 133.154C36.1431 133.154 35.4013 133.461 34.8543 134.008C34.3073 134.555 34 135.297 34 136.07V136.904C34 137.677 34.3073 138.419 34.8543 138.966C35.4013 139.513 36.1431 139.82 36.9167 139.82C37.6902 139.82 38.4321 139.513 38.9791 138.966C39.526 138.419 39.8333 137.677 39.8333 136.904V135.404" stroke="#616161" stroke-width="1.25" stroke-linecap="round" stroke-linejoin="round"/>
    <path d="M31.0837 133.154C31.8572 133.154 32.5991 133.461 33.1461 134.008C33.693 134.555 34.0003 135.297 34.0003 136.07V136.904C34.0003 137.677 33.693 138.419 33.1461 138.966C32.5991 139.513 31.8572 139.82 31.0837 139.82C30.3101 139.82 29.5682 139.513 29.0213 138.966C28.4743 138.419 28.167 137.677 28.167 136.904V135.404" stroke="#616161" stroke-width="1.25" stroke-linecap="round" stroke-linejoin="round"/>
    <path d="M38.5837 135.654C39.3572 135.654 40.0991 135.346 40.6461 134.799C41.193 134.252 41.5003 133.511 41.5003 132.737C41.5003 131.963 41.193 131.222 40.6461 130.675C40.0991 130.128 39.3572 129.82 38.5837 129.82H38.167" stroke="#616161" stroke-width="1.25" stroke-linecap="round" stroke-linejoin="round"/>
    <path d="M39.8333 130.07V127.737C39.8333 126.963 39.526 126.222 38.9791 125.675C38.4321 125.128 37.6902 124.82 36.9167 124.82C36.1431 124.82 35.4013 125.128 34.8543 125.675C34.3073 126.222 34 126.963 34 127.737" stroke="#616161" stroke-width="1.25" stroke-linecap="round" stroke-linejoin="round"/>
    <path d="M29.4167 135.654C28.6431 135.654 27.9013 135.346 27.3543 134.799C26.8073 134.252 26.5 133.511 26.5 132.737C26.5 131.963 26.8073 131.222 27.3543 130.675C27.9013 130.128 28.6431 129.82 29.4167 129.82H29.8333" stroke="#616161" stroke-width="1.25" stroke-linecap="round" stroke-linejoin="round"/>
    <path d="M28.167 130.07V127.737C28.167 126.963 28.4743 126.222 29.0213 125.675C29.5682 125.128 30.3101 124.82 31.0837 124.82C31.8572 124.82 32.5991 125.128 33.1461 125.675C33.693 126.222 34.0003 126.963 34.0003 127.737V136.07" stroke="#616161" stroke-width="1.25" stroke-linecap="round" stroke-linejoin="round"/>
  </g>
</svg>
